<?xml version="1.0" encoding="utf-8"?>
<!-- Generator: Adobe Illustrator 26.3.1, SVG Export Plug-In . SVG Version: 6.00 Build 0)  -->
<svg version="1.1" id="Layer_1" xmlns="http://www.w3.org/2000/svg" xmlns:xlink="http://www.w3.org/1999/xlink" x="0px" y="0px"
	 viewBox="0 0 1000 1000" style="enable-background:new 0 0 1000 1000;" xml:space="preserve">
<style type="text/css">
	.st0{fill:#562B40;}
	.st1{fill:#C45886;}
</style>
<g id="a">
	<path class="st0" d="M50,0h450c276,0,500,224,500,500l0,0c0,276-224,500-500,500H50c-27.6,0-50-22.4-50-50V50C0,22.4,22.4,0,50,0z"
		/>
</g>
<g id="b">
	<path class="st1" d="M500,55H55v890h445c245.8,0,445-199.2,445-445l0,0C945,254.2,745.8,55,500,55z M455.1,854.8
		c-176.6-21.9-312.9-172.1-312.9-354.5c0-27.7,3.6-54.1,9.4-80l214.1,214.1v44.7c0,49.2,40.2,89.4,89.4,89.4L455.1,854.8
		L455.1,854.8z M763.5,741.3c-11.6-36.2-44.7-62.1-84.9-62.1h-44.7V545.1c0-24.6-20.1-44.7-44.7-44.7H321V411h89.4
		c24.6,0,44.7-20.1,44.7-44.7v-89.4h89.4c49.2,0,89.4-40.2,89.4-89.4v-18.3c131,53.2,223.5,181.5,223.5,331.2
		C857.4,593.3,821.6,677.8,763.5,741.3L763.5,741.3z"/>
</g>
</svg>
