<?xml version="1.0" encoding="UTF-8"?><svg xmlns="http://www.w3.org/2000/svg" viewBox="0 0 1000 1000"><defs><style>.c{fill:#2c3d3b;}.d{fill:#5fa084;}</style></defs><g id="a"><path class="c" d="M50,0H500C775.96,0,1000,224.04,1000,500h0c0,275.96-224.04,500-500,500H50c-27.6,0-50-22.4-50-50V50C0,22.4,22.4,0,50,0Z"/></g><g id="b"><path class="d" d="M500,55H55V945H500c245.77,0,445-199.23,445-445h0c0-245.77-199.23-445-445-445Zm-44.94,799.83c-176.56-21.9-312.89-172.09-312.89-354.46,0-27.71,3.58-54.09,9.39-80.01l214.11,214.11v44.7c0,49.17,40.23,89.4,89.4,89.4v86.27Zm308.42-113.53c-11.62-36.21-44.7-62.13-84.93-62.13h-44.7v-134.1c0-24.58-20.11-44.7-44.7-44.7H320.97v-89.4h89.4c24.58,0,44.7-20.11,44.7-44.7v-89.4h89.4c49.17,0,89.4-40.23,89.4-89.4v-18.33c130.97,53.19,223.49,181.48,223.49,331.22,0,92.97-35.76,177.45-93.87,240.93Z"/></g></svg>