<?xml version="1.0" encoding="UTF-8"?><svg id="a" xmlns="http://www.w3.org/2000/svg" viewBox="0 0 1019.17 410.41"><defs><style>.d{fill:#5fa084;}</style></defs><path id="b" class="d" d="M814.09,0h-205.08V410.16h205.08c113.26,0,205.08-91.82,205.08-205.08h0C1019.17,91.82,927.35,0,814.09,0Zm-20.71,368.6c-81.37-10.09-144.2-79.31-144.2-163.35,0-12.77,1.65-24.93,4.33-36.87l98.67,98.67v20.6c0,22.66,18.54,41.2,41.2,41.2v39.76Zm142.14-52.32c-5.36-16.69-20.6-28.63-39.14-28.63h-20.6v-61.8c0-11.33-9.27-20.6-20.6-20.6h-123.6v-41.2h41.2c11.33,0,20.6-9.27,20.6-20.6v-41.2h41.2c22.66,0,41.2-18.54,41.2-41.2v-8.45c60.36,24.51,103,83.63,103,152.64,0,42.85-16.48,81.78-43.26,111.03Z"/><g id="c"><path class="d" d="M252.75,1.08V67.35H82.1v104.97H212.88v65.1H82.1v172.99H0V1.08H252.75Z"/><path class="d" d="M392.91,67.35v102.62h137.81v65.1h-137.81v108.49h155.4v66.86h-237.5V.49h237.5V67.35h-155.4Z"/></g></svg>