<?xml version="1.0" encoding="UTF-8"?><svg id="Layer_1" xmlns="http://www.w3.org/2000/svg" viewBox="0 0 180 200"><defs><style>.cls-1{fill:#5fa084;}</style></defs><path class="cls-1" d="M120,200h40c11,0,20-9,20-20v-30c0-11-9-20-20-20h-10v-20c0-11-9-20-20-20h-30v-20h10c11,0,20-9,20-20V20c0-11-9-20-20-20h-40c-11,0-20,9-20,20v30c0,11,9,20,20,20h10v20h-30c-11,0-20,9-20,20v20h-10c-11,0-20,9-20,20v30c0,11,9,20,20,20H60c11,0,20-9,20-20v-30c0-11-9-20-20-20h-10v-20h80v20h-10c-11,0-20,9-20,20v30c0,11,9,20,20,20Z"/></svg>