<?xml version="1.0" encoding="UTF-8"?><svg id="Layer_1" xmlns="http://www.w3.org/2000/svg" viewBox="0 0 200 200"><defs><style>.cls-1{fill:#5fa084;}</style></defs><path class="cls-1" d="M200,100c0,20.09,0,33.64-.47,41.12-.93,18.22-6.07,32.24-16.36,42.06-10.28,9.81-23.83,15.42-42.06,16.36-7.48,.47-21.5,.47-41.12,.47s-33.64,0-41.12-.47c-18.22-.93-32.24-6.07-42.06-16.36C7.01,173.36,1.4,159.35,.47,141.12c-.47-7.48-.47-21.5-.47-41.12s0-33.64,.47-41.12C1.4,40.65,6.54,26.64,16.82,16.82,26.64,7.01,40.65,1.4,58.88,.47c7.48-.47,21.5-.47,41.12-.47s33.64,0,41.12,.47c18.22,.93,32.24,6.07,42.06,16.36,9.81,10.28,15.42,23.83,16.36,42.06,0,7.48,.47,21.03,.47,41.12ZM109.81,17.76h-33.18c-3.27,0-7.48,0-12.62,.47-5.14,0-9.81,.47-13.55,1.4-3.74,.47-7.01,1.4-9.35,2.34-4.21,1.87-7.94,4.21-11.68,7.48-3.27,3.27-5.61,7.01-7.48,11.68-.93,2.34-1.87,5.61-2.34,9.35-.47,3.74-.93,7.94-1.4,13.55,0,5.14-.47,9.35-.47,12.62v46.73c0,3.27,0,7.48,.47,12.62,0,5.14,.47,9.81,1.4,13.55s1.4,7.01,2.34,9.35c1.87,4.21,4.21,7.94,7.48,11.68,3.27,3.27,7.01,5.61,11.68,7.48,2.34,.93,5.61,1.87,9.35,2.34,3.74,.47,7.94,.93,13.55,1.4s9.35,.47,12.62,.47h46.73c3.27,0,7.48,0,12.62-.47,5.14,0,9.81-.47,13.55-1.4,3.74-.47,7.01-1.4,9.35-2.34,4.21-1.87,7.94-4.21,11.68-7.48,3.27-3.27,5.61-7.01,7.48-11.68,.93-2.34,1.87-5.61,2.34-9.35s.93-7.94,1.4-13.55c0-5.14,.47-9.35,.47-12.62v-46.73c0-3.27,0-7.48-.47-12.62,0-5.14-.47-9.81-1.4-13.55-.47-3.74-1.4-7.01-2.34-9.35-1.87-4.21-4.21-7.94-7.48-11.68-3.27-3.27-7.01-5.61-11.68-7.48-2.34-.93-5.61-1.87-9.35-2.34s-7.94-.93-13.55-1.4c-5.14,0-9.35-.47-12.62-.47-2.8,0-7.48,0-13.55,0Zm26.17,45.79c9.81,9.81,14.95,21.96,14.95,36.45s-5.14,26.17-14.95,36.45c-9.81,9.81-21.96,14.95-36.45,14.95s-26.17-5.14-36.45-14.95c-9.81-9.81-14.95-21.96-14.95-36.45s5.14-26.17,14.95-36.45c9.81-9.81,21.96-14.95,36.45-14.95s26.64,4.67,36.45,14.95Zm-12.62,59.81c6.54-6.54,9.81-14.49,9.81-23.36s-3.27-17.29-9.81-23.83-14.49-9.81-23.83-9.81-17.29,3.27-23.83,9.81-9.81,14.49-9.81,23.83,3.27,17.29,9.81,23.36c6.54,6.54,14.49,9.81,23.83,9.81,9.35,0,17.29-3.27,23.83-9.81Zm38.32-85.51c2.34,2.34,3.74,5.14,3.74,8.41s-1.4,6.07-3.74,8.41-5.14,3.74-8.41,3.74-6.07-1.4-8.41-3.74-3.74-5.14-3.74-8.41,1.4-6.07,3.74-8.41,5.14-3.74,8.41-3.74,6.07,1.4,8.41,3.74Z"/></svg>