<?xml version="1.0" encoding="UTF-8"?><svg id="Layer_1" xmlns="http://www.w3.org/2000/svg" viewBox="0 0 160 200"><defs><style>.cls-1{fill:#5fa084;}</style></defs><path class="cls-1" d="M105.9,5.9c-3.8-3.8-8.9-5.9-14.2-5.9H20C9,0,0,9,0,20V180c0,11,8.9,20,19.9,20h120.1c11,0,20-9,20-20V68.3c0-5.3-2.1-10.4-5.9-14.1L105.9,5.9Zm4.1,154.1H50c-5.5,0-10-4.5-10-10s4.5-10,10-10h60c5.5,0,10,4.5,10,10s-4.5,10-10,10Zm0-40H50c-5.5,0-10-4.5-10-10s4.5-10,10-10h60c5.5,0,10,4.5,10,10s-4.5,10-10,10Zm-20-60V15l55,55h-45c-5.5,0-10-4.5-10-10Z"/></svg>