<?xml version="1.0" encoding="UTF-8"?><svg id="Layer_1" xmlns="http://www.w3.org/2000/svg" viewBox="0 0 240 120"><defs><style>.cls-1{fill:#5fa084;}</style></defs><path class="cls-1" d="M120,67.5c16.3,0,30.7,3.9,42.4,9,10.8,4.8,17.6,15.6,17.6,27.3v6.2c0,5.5-4.5,10-10,10H70c-5.5,0-10-4.5-10-10v-6.1c0-11.8,6.8-22.6,17.6-27.3,11.7-5.2,26.1-9.1,42.4-9.1Zm-80,2.5c11,0,20-9,20-20s-9-20-20-20-20,9-20,20,9,20,20,20Zm11.3,11c-3.7-.6-7.4-1-11.3-1-9.9,0-19.3,2.1-27.8,5.8-7.4,3.2-12.2,10.4-12.2,18.5v5.7c0,5.5,4.5,10,10,10H45v-16.1c0-8.3,2.3-16.1,6.3-22.9Zm148.7-11c11,0,20-9,20-20s-9-20-20-20-20,9-20,20,9,20,20,20Zm40,34.3c0-8.1-4.8-15.3-12.2-18.5-8.5-3.7-17.9-5.8-27.8-5.8-3.9,0-7.6,.4-11.3,1,4,6.8,6.3,14.6,6.3,22.9v16.1h35c5.5,0,10-4.5,10-10v-5.7ZM120,0c16.6,0,30,13.4,30,30s-13.4,30-30,30-30-13.4-30-30S103.4,0,120,0Z"/></svg>